<svg width="561" height="108" viewBox="0 0 561 108" fill="none" xmlns="http://www.w3.org/2000/svg">
<path fill-rule="evenodd" clip-rule="evenodd" d="M144.905 33.4943L143.042 23.9119L141.671 20.1175L133.674 9.26554L124.523 3.92929L116.995 2.15714L113.869 2H81.4528V3.0349L86.3443 4.30006L89.0512 6.90682L90.4533 10.6414L90.7678 21.914L90.8273 28.2509L90.8294 28.6417L90.6048 33.3891L90.0532 38.8892L88.4965 45.5893L86.0173 51.5587L83.7189 55.8424L79.3801 61.0669L76.0567 63.6104L72.7835 65.2033L69.6053 65.9372L66.5693 65.905L63.7213 65.1978L61.1074 63.906L60.1243 63.1544L58.7723 62.1217L55.1282 57.4462L53.1558 51.9007L52.9124 49.0317L54.4188 41.2171L57.6242 36.091L60.8085 33.285L62.2524 32.4305L81.7683 55.5789L85.7562 47.5827L73.1951 32.4305L69.7307 28.2509L71.6447 27.1462L72.5066 26.6493L75.5364 24.8627L78.5076 22.8227L81.108 20.4629L83.0272 17.7144L83.9539 14.5089L83.5747 10.7776L80.0601 5.31395L76.7159 3.62599V12.7102L76.4871 16.643L74.8886 21.0407L72.4011 24.3447L70.1121 26.4246L69.107 27.1462L66.1034 23.5865L62.7601 19.2873L60.8775 16.5633L59.4713 13.4552L59.1464 9.98066L60.1201 6.72414L62.6139 4.27243L66.8451 3.20869L71.2613 3.86837L74.2691 5.93163L76.0316 9.00991L76.7159 12.7102V3.62599L75.8916 3.20869L75.0057 2.76148L70.4651 2.02876L68.4958 2.02649L64.0463 2.49252L60.2412 3.88938L57.1561 6.02131L54.8712 8.69554L53.4619 11.7162L53.0064 14.8897L53.582 18.021L55.8366 23.0707L58.2552 27.2503L60.1859 30.0972L60.9747 31.1487L55.4981 34.2093L51.3588 37.4392L48.3656 40.6979L46.3262 43.8459L44.3475 49.2531L43.6339 53.8278L42.9339 56.0426L39.3244 61.0104L35.722 63.2828L31.519 64.2779L28.0316 64.5037L26.5763 64.4661L21.9972 62.7272L19.7134 59.0788L18.9277 55.4649L18.8431 32.9143H30.0375L37.1272 34.6631L41.4775 38.5107L43.6653 42.3582L44.266 44.106L45.9585 40.8594L47.8067 38.3391L49.2954 36.7076L49.9066 36.1275L46.1998 33.5518L44.5345 32.9143L42.4607 32.1217L39.5719 31.5062L38.4133 31.3745V31.0126V30.7868L45.5458 26.7821L48.5338 20.754L49.0781 15.2605L48.8817 12.8607L48.8734 12.7102L45.1248 6.18508L40.1382 3.35371L39.6085 3.05372L38.802 2.89762V19.1811L38.2075 22.8028L36.8221 26.036L34.5843 28.6417L31.4323 30.3806L27.3034 31.0126L18.8431 30.9009V3.35371H26.7048L31.7029 3.5275L36.2391 6.92896L37.8711 11.7273L38.6693 15.4088L38.802 19.1811V2.89762L34.6209 2.08628L32.4499 2.03983H0V3.08135L5.30938 4.42182L7.9693 7.37058L8.89394 10.3194L8.99842 11.6597V57.6975L7.59212 61.7177L4.49867 63.9835L1.40514 64.983L0 65.2077V66.0522L35.8474 65.9139L41.3908 65.4834L45.2961 64.5347L45.3703 64.5037L47.6071 63.5861L48.3677 63.1544L50.36 66.1707L52.7734 67.7657L57.1812 68.4686L65.1578 68.8107L74.4258 67.8974L80.0299 65.9372L81.4413 65.4446L85.8847 62.9065L87.4371 61.7365L91.6057 65.79L94.508 67.7978L97.5054 68.3524L101.96 68.0436L106.437 66.2759L108.787 63.305L110.061 60.0474L110.308 58.6871H109.284L108.372 61.4409L107.435 62.8368L105.906 63.305L103.216 63.2751L99.6889 62.0409L99.2982 61.7365L96.4282 59.5017L94.0337 56.9968L93.1028 55.8645L95.9152 51.1857L97.5032 48.1406L98.4508 45.3933L99.3431 41.6045L100.084 36.2582L100.335 30.7868L100.33 26.2696L100.279 24.4941V3.66913H110.237L114.499 4.29788L118.287 5.62057L121.619 7.54211L124.518 9.96619L127.006 12.7965L129.101 15.9379L130.826 19.2951L132.203 22.7707L133.251 26.2774L133.991 29.6954L134.636 35.946L133.922 43.7551L132.104 49.9006L130.237 53.9241L123.412 61.7918L116.992 64.4949L111.861 64.9985L109.764 64.828L108.743 65.9582L109.255 66.0522L122.012 65.7512L124.63 64.9985L130.469 63.3216L135.156 60.5521L136.601 59.2305L143.883 46.167L144.905 33.4943Z" fill="#D09F44"/>
<path d="M182.755 11.0516V27.3695H201.974C204.239 27.3695 205.804 27.4863 206.669 27.7198C207.542 27.9533 208.311 28.511 208.977 29.3931C209.651 30.2751 209.989 31.222 209.989 32.2338C209.989 33.5742 209.491 34.7589 208.497 35.7879C207.512 36.817 205.337 37.3315 201.974 37.3315H182.755V55.2579C182.755 57.8695 182.651 59.7979 182.444 61.0432C182.245 62.2884 181.674 63.4212 180.732 64.4417C179.79 65.4534 178.32 65.9593 176.323 65.9593C174.343 65.9593 172.882 65.4577 171.939 64.4546C170.997 63.4515 170.426 62.2841 170.228 60.9524C170.029 59.6206 169.929 57.7225 169.929 55.2579V11.9207C169.929 7.28557 170.262 4.6351 170.928 3.96923C171.594 3.29472 172.333 2.64616 173.145 2.02353C173.958 1.40091 176.465 1.08959 180.667 1.08959H206.072C208.329 1.08959 209.915 1.17607 210.832 1.34902C211.748 1.52197 212.565 2.04515 213.283 2.91855C214.009 3.79196 214.372 4.83399 214.372 6.04465C214.372 7.26395 214.017 8.31896 213.308 9.20966C212.6 10.0917 211.778 10.6192 210.844 10.7922C209.919 10.9651 208.329 11.0516 206.072 11.0516H182.755ZM255.045 49.8229H229.212L226.204 57.8263C224.959 61.1037 223.913 63.2786 223.065 64.3509C222.227 65.4232 220.865 65.9593 218.98 65.9593C217.243 65.9593 215.777 65.3583 214.584 64.1563C213.4 62.9456 212.807 61.6442 212.807 60.2519C212.807 58.7732 213.404 56.5421 214.597 53.5587L230.989 12.1412C232.441 8.39679 233.505 5.8717 234.179 4.56591C234.862 3.26013 235.908 2.17486 237.318 1.31011C238.727 0.436702 240.3 0 242.038 0C244.096 0 245.898 0.544797 247.446 1.63439C249.002 2.72398 250.23 4.38432 251.129 6.61539L270.011 53.2085C271.256 56.3735 271.878 58.6521 271.878 60.0444C271.878 61.4885 271.277 62.8375 270.076 64.0914C268.874 65.3367 267.374 65.9593 265.576 65.9593C263.656 65.9593 262.277 65.4145 261.439 64.3249C260.6 63.2353 259.511 61.0086 258.171 57.6447L255.045 49.8229ZM232.519 39.848H251.648L241.947 13.6199L232.519 39.848ZM292.413 16.6682C292.413 18.4669 293.195 20.0407 294.76 21.3898C296.325 22.7388 300.319 24.1829 306.743 25.7222C313.167 27.2528 317.926 28.8612 321.021 30.5475C324.125 32.2252 326.364 34.4303 327.739 37.1629C329.122 39.8869 329.814 42.7406 329.814 45.724C329.814 51.6735 327.557 56.5335 323.044 60.3038C318.54 64.0741 312.389 65.9593 304.59 65.9593C296.066 65.9593 289.694 63.9142 285.475 59.8239C281.256 55.7336 279.146 51.5006 279.146 47.1249C279.146 45.6721 279.687 44.375 280.767 43.2335C281.857 42.0834 283.27 41.5083 285.008 41.5083C286.607 41.5083 287.796 41.9883 288.574 42.9481C289.361 43.8994 290.303 45.6678 291.401 48.2534C293.779 53.736 298.028 56.4772 304.149 56.4772C307.806 56.4772 310.889 55.6384 313.396 53.9608C315.903 52.2745 317.157 49.9959 317.157 47.1249C317.157 44.8852 316.292 42.9698 314.563 41.3786C312.842 39.7788 308.887 38.2612 302.697 36.8257C296.507 35.3902 292.162 34.0195 289.664 32.7137C287.174 31.408 284.999 29.5228 283.141 27.0582C281.282 24.5937 280.352 21.5195 280.352 17.8356C280.352 12.4136 282.496 8.08547 286.785 4.85128C291.082 1.61709 296.93 0 304.331 0C311.87 0 317.55 1.72519 321.371 5.17557C325.201 8.62595 327.116 12.0936 327.116 15.5786C327.116 17.0314 326.563 18.3977 325.456 19.6775C324.358 20.9487 322.953 21.5843 321.242 21.5843C319.677 21.5843 318.488 21.1433 317.675 20.2612C316.863 19.3705 315.951 17.8832 314.939 15.7991C312.734 11.3888 308.935 9.18371 303.54 9.18371C300.41 9.18371 297.773 9.86687 295.629 11.2332C293.485 12.5909 292.413 14.4025 292.413 16.6682ZM353.696 26.3708H381.656V10.7014C381.656 7.83037 381.755 5.82414 381.954 4.68266C382.161 3.53253 382.823 2.46456 383.938 1.47873C385.062 0.492911 386.406 0 387.971 0C389.536 0 390.898 0.44535 392.056 1.33605C393.215 2.2181 393.911 3.26878 394.144 4.48809C394.378 5.70739 394.494 7.77849 394.494 10.7014V55.2579C394.494 58.1895 394.378 60.2433 394.144 61.4193C393.911 62.5868 393.241 63.6374 392.134 64.5714C391.036 65.4967 389.674 65.9593 388.049 65.9593C386.545 65.9593 385.218 65.5183 384.068 64.6362C382.927 63.7455 382.239 62.6948 382.006 61.4842C381.772 60.2649 381.656 58.1895 381.656 55.2579V36.3717H353.696V55.2579C353.696 58.1895 353.579 60.2433 353.346 61.4193C353.112 62.5868 352.442 63.6374 351.336 64.5714C350.238 65.4967 348.906 65.9593 347.341 65.9593C345.776 65.9593 344.419 65.5096 343.269 64.6103C342.128 63.7109 341.441 62.6516 341.207 61.4323C340.974 60.213 340.857 58.1549 340.857 55.2579V10.7014C340.857 7.83037 340.957 5.82414 341.155 4.68266C341.363 3.53253 342.024 2.46456 343.14 1.47873C344.264 0.492911 345.634 0 347.251 0C348.764 0 350.099 0.44535 351.258 1.33605C352.416 2.2181 353.112 3.26878 353.346 4.48809C353.579 5.70739 353.696 7.77849 353.696 10.7014V26.3708ZM421.803 10.7014V55.2579C421.803 58.2154 421.695 60.2908 421.479 61.4842C421.263 62.6689 420.602 63.7109 419.495 64.6103C418.397 65.5096 417.066 65.9593 415.501 65.9593C413.936 65.9593 412.566 65.5053 411.39 64.5973C410.214 63.6807 409.518 62.6127 409.302 61.3934C409.086 60.1741 408.978 58.1289 408.978 55.2579V10.7014C408.978 7.77849 409.086 5.74631 409.302 4.60483C409.518 3.4547 410.197 2.3997 411.338 1.43982C412.488 0.47994 413.832 0 415.371 0C416.875 0 418.207 0.44535 419.365 1.33605C420.533 2.2181 421.229 3.26878 421.453 4.48809C421.687 5.70739 421.803 7.77849 421.803 10.7014ZM433.461 33.2456C433.461 23.1193 436.171 15.0468 441.592 9.02806C447.022 3.00935 454.621 0 464.39 0C474.687 0 482.503 3.03962 487.837 9.11886C493.172 15.1981 495.839 23.1236 495.839 32.8953C495.839 42.693 493.176 50.6531 487.85 56.7756C482.533 62.8981 474.83 65.9593 464.741 65.9593C454.617 65.9593 446.87 62.9154 441.501 56.8275C436.141 50.7309 433.461 42.8703 433.461 33.2456ZM482.741 32.9861C482.741 26.0248 481.154 20.4991 477.981 16.4088C474.808 12.3185 470.365 10.2733 464.65 10.2733C459.376 10.2733 455.04 12.1671 451.643 15.9548C448.253 19.7337 446.559 25.4109 446.559 32.9861C446.559 40.4922 448.275 46.1521 451.707 49.9656C455.148 53.7792 459.432 55.686 464.559 55.686C469.582 55.686 473.866 53.8008 477.411 50.0305C480.964 46.2602 482.741 40.5787 482.741 32.9861ZM548.467 45.3349V7.48447C548.467 2.49482 550.455 0 554.432 0C555.85 0 557.099 0.423731 558.18 1.27119C559.269 2.11001 559.931 3.10448 560.164 4.2546C560.398 5.39608 560.514 7.37205 560.514 10.1825V52.8582C560.514 55.9973 560.398 58.3278 560.164 59.8498C559.931 61.3718 559.248 62.7727 558.115 64.0525C556.991 65.3237 555.241 65.9593 552.863 65.9593C550.918 65.9593 549.392 65.4794 548.285 64.5195C547.187 63.5596 545.523 61.3847 543.292 57.9949L519.068 21.1952V55.8676C519.068 58.6521 518.964 60.5978 518.756 61.7047C518.557 62.8029 517.944 63.7888 516.915 64.6622C515.886 65.5269 514.615 65.9593 513.102 65.9593C511.71 65.9593 510.483 65.5615 509.419 64.7659C508.364 63.9617 507.707 62.9586 507.448 61.7566C507.189 60.5546 507.059 58.5916 507.059 55.8676V12.7508C507.059 8.77296 507.223 6.16139 507.552 4.91614C507.889 3.67089 508.723 2.54238 510.055 1.53062C511.395 0.510206 512.947 0 514.71 0C516.508 0 517.892 0.428054 518.86 1.28416C519.837 2.14027 521.458 4.29352 523.723 7.74389L548.467 45.3349Z" fill="white"/>
<path d="M3.75887 102H1.54296L7.95205 84.5455H10.1339L16.543 102H14.327L9.11114 87.3068H8.97478L3.75887 102ZM4.57705 95.1818H13.5089V97.0568H4.57705V95.1818ZM40.4117 102V84.5455H42.5253V92.3182H51.8322V84.5455H53.9458V102H51.8322V94.1932H42.5253V102H40.4117ZM80.1046 93.2727C80.1046 95.1136 79.7722 96.7045 79.1074 98.0455C78.4427 99.3864 77.5307 100.42 76.3717 101.148C75.2126 101.875 73.8887 102.239 72.4001 102.239C70.9114 102.239 69.5876 101.875 68.4285 101.148C67.2694 100.42 66.3574 99.3864 65.6927 98.0455C65.0279 96.7045 64.6955 95.1136 64.6955 93.2727C64.6955 91.4318 65.0279 89.8409 65.6927 88.5C66.3574 87.1591 67.2694 86.125 68.4285 85.3977C69.5876 84.6705 70.9114 84.3068 72.4001 84.3068C73.8887 84.3068 75.2126 84.6705 76.3717 85.3977C77.5307 86.125 78.4427 87.1591 79.1074 88.5C79.7722 89.8409 80.1046 91.4318 80.1046 93.2727ZM78.0592 93.2727C78.0592 91.7614 77.8063 90.4858 77.3006 89.446C76.8006 88.4062 76.1216 87.6193 75.2637 87.0852C74.4114 86.5511 73.4569 86.2841 72.4001 86.2841C71.3432 86.2841 70.3859 86.5511 69.5279 87.0852C68.6756 87.6193 67.9966 88.4062 67.491 89.446C66.991 90.4858 66.741 91.7614 66.741 93.2727C66.741 94.7841 66.991 96.0597 67.491 97.0994C67.9966 98.1392 68.6756 98.9261 69.5279 99.4602C70.3859 99.9943 71.3432 100.261 72.4001 100.261C73.4569 100.261 74.4114 99.9943 75.2637 99.4602C76.1216 98.9261 76.8006 98.1392 77.3006 97.0994C77.8063 96.0597 78.0592 94.7841 78.0592 93.2727ZM102.313 84.5455H104.427V96.1023C104.427 97.2955 104.146 98.3608 103.583 99.2983C103.026 100.23 102.239 100.966 101.222 101.506C100.205 102.04 99.012 102.307 97.6427 102.307C96.2734 102.307 95.0802 102.04 94.0631 101.506C93.0461 100.966 92.2563 100.23 91.6938 99.2983C91.137 98.3608 90.8586 97.2955 90.8586 96.1023V84.5455H92.9722V95.9318C92.9722 96.7841 93.1597 97.5426 93.5347 98.2074C93.9097 98.8665 94.4438 99.3864 95.137 99.767C95.8359 100.142 96.6711 100.33 97.6427 100.33C98.6143 100.33 99.4495 100.142 100.148 99.767C100.847 99.3864 101.381 98.8665 101.751 98.2074C102.126 97.5426 102.313 96.7841 102.313 95.9318V84.5455ZM125.393 88.9091C125.291 88.0455 124.876 87.375 124.149 86.8977C123.422 86.4205 122.529 86.1818 121.473 86.1818C120.7 86.1818 120.024 86.3068 119.444 86.5568C118.87 86.8068 118.422 87.1506 118.098 87.5881C117.779 88.0256 117.62 88.5227 117.62 89.0795C117.62 89.5455 117.731 89.946 117.953 90.2812C118.18 90.6108 118.47 90.8864 118.822 91.108C119.174 91.3239 119.544 91.5028 119.93 91.6449C120.316 91.7812 120.672 91.892 120.995 91.9773L122.768 92.4545C123.223 92.5739 123.728 92.7386 124.285 92.9489C124.848 93.1591 125.385 93.446 125.896 93.8097C126.413 94.1676 126.839 94.6278 127.174 95.1903C127.51 95.7528 127.677 96.4432 127.677 97.2614C127.677 98.2045 127.43 99.0568 126.936 99.8182C126.447 100.58 125.731 101.185 124.788 101.634C123.85 102.082 122.711 102.307 121.37 102.307C120.12 102.307 119.038 102.105 118.123 101.702C117.214 101.298 116.498 100.736 115.975 100.014C115.458 99.2926 115.166 98.4545 115.098 97.5H117.279C117.336 98.1591 117.558 98.7045 117.944 99.1364C118.336 99.5625 118.831 99.8807 119.427 100.091C120.029 100.295 120.677 100.398 121.37 100.398C122.177 100.398 122.902 100.267 123.544 100.006C124.186 99.7386 124.694 99.3693 125.069 98.8977C125.444 98.4205 125.632 97.8636 125.632 97.2273C125.632 96.6477 125.47 96.1761 125.146 95.8125C124.822 95.4489 124.396 95.1534 123.868 94.9261C123.339 94.6989 122.768 94.5 122.154 94.3295L120.007 93.7159C118.643 93.3239 117.564 92.7642 116.768 92.0369C115.973 91.3097 115.575 90.358 115.575 89.1818C115.575 88.2045 115.839 87.3523 116.368 86.625C116.902 85.892 117.618 85.3239 118.515 84.9205C119.419 84.5114 120.427 84.3068 121.541 84.3068C122.666 84.3068 123.666 84.5085 124.541 84.9119C125.416 85.3097 126.109 85.8551 126.62 86.5483C127.137 87.2415 127.41 88.0284 127.439 88.9091H125.393ZM138.352 102V84.5455H148.886V86.4205H140.466V92.3182H148.341V94.1932H140.466V100.125H149.023V102H138.352ZM188.573 93.2727C188.573 95.1136 188.241 96.7045 187.576 98.0455C186.911 99.3864 185.999 100.42 184.84 101.148C183.681 101.875 182.357 102.239 180.869 102.239C179.38 102.239 178.056 101.875 176.897 101.148C175.738 100.42 174.826 99.3864 174.161 98.0455C173.497 96.7045 173.164 95.1136 173.164 93.2727C173.164 91.4318 173.497 89.8409 174.161 88.5C174.826 87.1591 175.738 86.125 176.897 85.3977C178.056 84.6705 179.38 84.3068 180.869 84.3068C182.357 84.3068 183.681 84.6705 184.84 85.3977C185.999 86.125 186.911 87.1591 187.576 88.5C188.241 89.8409 188.573 91.4318 188.573 93.2727ZM186.528 93.2727C186.528 91.7614 186.275 90.4858 185.769 89.446C185.269 88.4062 184.59 87.6193 183.732 87.0852C182.88 86.5511 181.926 86.2841 180.869 86.2841C179.812 86.2841 178.855 86.5511 177.997 87.0852C177.144 87.6193 176.465 88.4062 175.96 89.446C175.46 90.4858 175.21 91.7614 175.21 93.2727C175.21 94.7841 175.46 96.0597 175.96 97.0994C176.465 98.1392 177.144 98.9261 177.997 99.4602C178.855 99.9943 179.812 100.261 180.869 100.261C181.926 100.261 182.88 99.9943 183.732 99.4602C184.59 98.9261 185.269 98.1392 185.769 97.0994C186.275 96.0597 186.528 94.7841 186.528 93.2727ZM199.327 102V84.5455H209.793V86.4205H201.441V92.3182H209.009V94.1932H201.441V102H199.327ZM240.904 96.5455H243.222L245.166 99.1023L245.677 99.7841L248.575 103.636H246.256L244.347 101.08L243.87 100.432L240.904 96.5455ZM249.291 93.2727C249.291 95.1136 248.958 96.7045 248.293 98.0455C247.629 99.3864 246.717 100.42 245.558 101.148C244.398 101.875 243.075 102.239 241.586 102.239C240.097 102.239 238.773 101.875 237.614 101.148C236.455 100.42 235.543 99.3864 234.879 98.0455C234.214 96.7045 233.881 95.1136 233.881 93.2727C233.881 91.4318 234.214 89.8409 234.879 88.5C235.543 87.1591 236.455 86.125 237.614 85.3977C238.773 84.6705 240.097 84.3068 241.586 84.3068C243.075 84.3068 244.398 84.6705 245.558 85.3977C246.717 86.125 247.629 87.1591 248.293 88.5C248.958 89.8409 249.291 91.4318 249.291 93.2727ZM247.245 93.2727C247.245 91.7614 246.992 90.4858 246.487 89.446C245.987 88.4062 245.308 87.6193 244.45 87.0852C243.597 86.5511 242.643 86.2841 241.586 86.2841C240.529 86.2841 239.572 86.5511 238.714 87.0852C237.862 87.6193 237.183 88.4062 236.677 89.446C236.177 90.4858 235.927 91.7614 235.927 93.2727C235.927 94.7841 236.177 96.0597 236.677 97.0994C237.183 98.1392 237.862 98.9261 238.714 99.4602C239.572 99.9943 240.529 100.261 241.586 100.261C242.643 100.261 243.597 99.9943 244.45 99.4602C245.308 98.9261 245.987 98.1392 246.487 97.0994C246.992 96.0597 247.245 94.7841 247.245 93.2727ZM271.499 84.5455H273.613V96.1023C273.613 97.2955 273.331 98.3608 272.769 99.2983C272.212 100.23 271.425 100.966 270.408 101.506C269.391 102.04 268.198 102.307 266.829 102.307C265.459 102.307 264.266 102.04 263.249 101.506C262.232 100.966 261.442 100.23 260.88 99.2983C260.323 98.3608 260.045 97.2955 260.045 96.1023V84.5455H262.158V95.9318C262.158 96.7841 262.346 97.5426 262.721 98.2074C263.096 98.8665 263.63 99.3864 264.323 99.767C265.022 100.142 265.857 100.33 266.829 100.33C267.8 100.33 268.635 100.142 269.334 99.767C270.033 99.3864 270.567 98.8665 270.937 98.2074C271.312 97.5426 271.499 96.7841 271.499 95.9318V84.5455ZM285.749 102H283.534L289.943 84.5455H292.124L298.534 102H296.318L291.102 87.3068H290.965L285.749 102ZM286.568 95.1818H295.499V97.0568H286.568V95.1818ZM308.452 102V84.5455H310.566V100.125H318.68V102H308.452ZM331.266 84.5455V102H329.152V84.5455H331.266ZM341.749 86.4205V84.5455H354.84V86.4205H349.352V102H347.238V86.4205H341.749ZM363.802 84.5455H366.223L371.064 92.6932H371.268L376.109 84.5455H378.53L372.223 94.8068V102H370.109V94.8068L363.802 84.5455Z" fill="white"/>
<line x1="399.929" y1="93.5" x2="558.929" y2="93.5" stroke="#D09F44" stroke-width="3"/>
</svg>
