<svg width="561" height="108" viewBox="0 0 561 108" fill="none" xmlns="http://www.w3.org/2000/svg">
<path fill-rule="evenodd" clip-rule="evenodd" d="M144.975 33.4943L143.113 23.9119L141.742 20.1175L133.744 9.26554L124.593 3.92929L117.066 2.15714L113.94 2H81.5235V3.0349L86.415 4.30006L89.1219 6.90682L90.524 10.6414L90.8385 21.914L90.898 28.2509L90.9001 28.6417L90.6755 33.3891L90.1239 38.8892L88.5672 45.5893L86.088 51.5587L83.7896 55.8424L79.4507 61.0669L76.1274 63.6104L72.8542 65.2033L69.676 65.9372L66.64 65.905L63.792 65.1978L61.1781 63.906L60.1949 63.1544L58.843 62.1217L55.1989 57.4462L53.2265 51.9007L52.983 49.0317L54.4895 41.2171L57.6949 36.091L60.8792 33.285L62.3231 32.4305L81.839 55.5789L85.8268 47.5827L73.2658 32.4305L69.8014 28.2509L71.7154 27.1462L72.5773 26.6493L75.607 24.8627L78.5783 22.8227L81.1787 20.4629L83.0979 17.7144L84.0246 14.5089L83.6454 10.7776L80.1308 5.31395L76.7866 3.62599V12.7102L76.5578 16.643L74.9593 21.0407L72.4718 24.3447L70.1827 26.4246L69.1776 27.1462L66.174 23.5865L62.8308 19.2873L60.9482 16.5633L59.5419 13.4552L59.2171 9.98066L60.1907 6.72414L62.6846 4.27243L66.9158 3.20869L71.332 3.86837L74.3398 5.93163L76.1023 9.00991L76.7866 12.7102V3.62599L75.9623 3.20869L75.0764 2.76148L70.5358 2.02876L68.5665 2.02649L64.1169 2.49252L60.3119 3.88938L57.2268 6.02131L54.9419 8.69554L53.5326 11.7162L53.0771 14.8897L53.6527 18.021L55.9073 23.0707L58.3259 27.2503L60.2565 30.0972L61.0454 31.1487L55.5688 34.2093L51.4295 37.4392L48.4362 40.6979L46.3969 43.8459L44.4181 49.2531L43.7046 53.8278L43.0046 56.0426L39.395 61.0104L35.7927 63.2828L31.5897 64.2779L28.1023 64.5037L26.647 64.4661L22.0678 62.7272L19.784 59.0788L18.9983 55.4649L18.9138 32.9143H30.1082L37.1979 34.6631L41.5482 38.5107L43.7359 42.3582L44.3367 44.106L46.0292 40.8594L47.8773 38.3391L49.3661 36.7076L49.9773 36.1275L46.2705 33.5518L44.6051 32.9143L42.5313 32.1217L39.6426 31.5062L38.484 31.3745V31.0126V30.7868L45.6165 26.7821L48.6045 20.754L49.1488 15.2605L48.9524 12.8607L48.944 12.7102L45.1955 6.18508L40.2089 3.35371L39.6792 3.05372L38.8727 2.89762V19.1811L38.2781 22.8028L36.8928 26.036L34.655 28.6417L31.503 30.3806L27.3741 31.0126L18.9138 30.9009V3.35371H26.7755L31.7736 3.5275L36.3098 6.92896L37.9418 11.7273L38.74 15.4088L38.8727 19.1811V2.89762L34.6915 2.08628L32.5206 2.03983H0.0706787V3.08135L5.38006 4.42182L8.03997 7.37058L8.96462 10.3194L9.0691 11.6597V57.6975L7.6628 61.7177L4.56935 63.9835L1.47582 64.983L0.0706787 65.2077V66.0522L35.9181 65.9139L41.4615 65.4834L45.3668 64.5347L45.4409 64.5037L47.6778 63.5861L48.4384 63.1544L50.4307 66.1707L52.8441 67.7657L57.2519 68.4686L65.2285 68.8107L74.4965 67.8974L80.1005 65.9372L81.512 65.4446L85.9553 62.9065L87.5078 61.7365L91.6764 65.79L94.5787 67.7978L97.5761 68.3524L102.031 68.0436L106.508 66.2759L108.857 63.305L110.132 60.0474L110.378 58.6871H109.355L108.443 61.4409L107.505 62.8368L105.977 63.305L103.287 63.2751L99.7596 62.0409L99.3688 61.7365L96.4989 59.5017L94.1044 56.9968L93.1735 55.8645L95.9859 51.1857L97.5739 48.1406L98.5215 45.3933L99.4138 41.6045L100.154 36.2582L100.405 30.7868L100.401 26.2696L100.35 24.4941V3.66913H110.307L114.57 4.29788L118.357 5.62057L121.69 7.54211L124.589 9.96619L127.077 12.7965L129.171 15.9379L130.896 19.2951L132.273 22.7707L133.322 26.2774L134.062 29.6954L134.706 35.946L133.993 43.7551L132.175 49.9006L130.308 53.9241L123.483 61.7918L117.063 64.4949L111.932 64.9985L109.835 64.828L108.813 65.9582L109.325 66.0522L122.083 65.7512L124.701 64.9985L130.54 63.3216L135.227 60.5521L136.672 59.2305L143.954 46.167L144.975 33.4943Z" fill="#D09F44"/>
<path d="M182.826 11.0516V27.3695H202.045C204.31 27.3695 205.875 27.4863 206.739 27.7198C207.613 27.9533 208.382 28.511 209.048 29.3931C209.722 30.2751 210.059 31.222 210.059 32.2338C210.059 33.5742 209.562 34.7589 208.568 35.7879C207.582 36.817 205.408 37.3315 202.045 37.3315H182.826V55.2579C182.826 57.8695 182.722 59.7979 182.514 61.0432C182.316 62.2884 181.745 63.4212 180.803 64.4417C179.86 65.4534 178.391 65.9593 176.393 65.9593C174.414 65.9593 172.952 65.4577 172.01 64.4546C171.068 63.4515 170.497 62.2841 170.298 60.9524C170.099 59.6206 170 57.7225 170 55.2579V11.9207C170 7.28557 170.333 4.6351 170.999 3.96923C171.664 3.29472 172.403 2.64616 173.216 2.02353C174.029 1.40091 176.536 1.08959 180.738 1.08959H206.143C208.399 1.08959 209.986 1.17607 210.902 1.34902C211.819 1.52197 212.636 2.04515 213.353 2.91855C214.079 3.79196 214.443 4.83399 214.443 6.04465C214.443 7.26396 214.088 8.31896 213.379 9.20966C212.67 10.0917 211.849 10.6192 210.915 10.7922C209.99 10.9651 208.399 11.0516 206.143 11.0516H182.826ZM255.116 49.8229H229.283L226.274 57.8263C225.029 61.1037 223.983 63.2786 223.136 64.3509C222.297 65.4232 220.936 65.9593 219.051 65.9593C217.313 65.9593 215.848 65.3583 214.655 64.1563C213.47 62.9456 212.878 61.6442 212.878 60.2519C212.878 58.7732 213.475 56.5421 214.668 53.5587L231.06 12.1412C232.512 8.39679 233.576 5.8717 234.25 4.56591C234.933 3.26013 235.979 2.17486 237.388 1.31011C238.797 0.436702 240.371 0 242.109 0C244.166 0 245.969 0.544797 247.517 1.63439C249.073 2.72398 250.3 4.38432 251.2 6.61539L270.081 53.2085C271.326 56.3735 271.949 58.6521 271.949 60.0444C271.949 61.4885 271.348 62.8375 270.146 64.0914C268.945 65.3367 267.445 65.9593 265.646 65.9593C263.727 65.9593 262.348 65.4145 261.509 64.3249C260.671 63.2353 259.581 61.0086 258.241 57.6447L255.116 49.8229ZM232.59 39.848H251.718L242.018 13.6199L232.59 39.848ZM292.484 16.6682C292.484 18.4669 293.266 20.0407 294.831 21.3898C296.396 22.7388 300.39 24.1829 306.814 25.7222C313.237 27.2528 317.997 28.8612 321.092 30.5475C324.196 32.2252 326.435 34.4303 327.809 37.1629C329.193 39.8869 329.884 42.7406 329.884 45.724C329.884 51.6735 327.628 56.5335 323.115 60.3038C318.611 64.0741 312.459 65.9593 304.661 65.9593C296.136 65.9593 289.765 63.9142 285.546 59.8239C281.327 55.7336 279.217 51.5006 279.217 47.1249C279.217 45.6721 279.757 44.375 280.838 43.2335C281.927 42.0834 283.341 41.5083 285.079 41.5083C286.678 41.5083 287.867 41.9883 288.645 42.9481C289.432 43.8994 290.374 45.6678 291.472 48.2534C293.85 53.736 298.099 56.4772 304.22 56.4772C307.877 56.4772 310.959 55.6384 313.466 53.9608C315.974 52.2745 317.227 49.9959 317.227 47.1249C317.227 44.8852 316.363 42.9698 314.634 41.3786C312.913 39.7788 308.958 38.2612 302.768 36.8257C296.577 35.3902 292.233 34.0195 289.734 32.7137C287.244 31.408 285.07 29.5228 283.211 27.0582C281.352 24.5937 280.423 21.5195 280.423 17.8356C280.423 12.4136 282.567 8.08547 286.855 4.85128C291.152 1.61709 297.001 0 304.402 0C311.94 0 317.621 1.72519 321.442 5.17557C325.272 8.62595 327.187 12.0936 327.187 15.5786C327.187 17.0314 326.634 18.3977 325.527 19.6775C324.429 20.9487 323.024 21.5843 321.312 21.5843C319.747 21.5843 318.559 21.1433 317.746 20.2612C316.933 19.3705 316.021 17.8832 315.01 15.7991C312.805 11.3888 309.005 9.18371 303.61 9.18371C300.481 9.18371 297.844 9.86687 295.7 11.2332C293.556 12.5909 292.484 14.4025 292.484 16.6682ZM353.767 26.3708H381.726V10.7014C381.726 7.83037 381.826 5.82414 382.025 4.68266C382.232 3.53253 382.893 2.46456 384.009 1.47873C385.133 0.492911 386.477 0 388.042 0C389.607 0 390.968 0.44535 392.127 1.33605C393.285 2.2181 393.981 3.26878 394.215 4.48809C394.448 5.70739 394.565 7.77849 394.565 10.7014V55.2579C394.565 58.1895 394.448 60.2433 394.215 61.4193C393.981 62.5868 393.311 63.6374 392.205 64.5714C391.107 65.4967 389.745 65.9593 388.12 65.9593C386.615 65.9593 385.288 65.5183 384.138 64.6362C382.997 63.7455 382.31 62.6949 382.076 61.4842C381.843 60.2649 381.726 58.1895 381.726 55.2579V36.3717H353.767V55.2579C353.767 58.1895 353.65 60.2433 353.416 61.4193C353.183 62.5868 352.513 63.6374 351.406 64.5714C350.308 65.4967 348.977 65.9593 347.412 65.9593C345.847 65.9593 344.49 65.5096 343.34 64.6103C342.199 63.7109 341.511 62.6516 341.278 61.4323C341.045 60.213 340.928 58.1549 340.928 55.2579V10.7014C340.928 7.83037 341.027 5.82414 341.226 4.68266C341.434 3.53253 342.095 2.46456 343.21 1.47873C344.334 0.492911 345.705 0 347.321 0C348.834 0 350.17 0.44535 351.328 1.33605C352.487 2.2181 353.183 3.26878 353.416 4.48809C353.65 5.70739 353.767 7.77849 353.767 10.7014V26.3708ZM421.874 10.7014V55.2579C421.874 58.2154 421.766 60.2908 421.55 61.4842C421.334 62.6689 420.672 63.7109 419.566 64.6103C418.468 65.5096 417.136 65.9593 415.572 65.9593C414.007 65.9593 412.636 65.5053 411.461 64.5973C410.285 63.6807 409.589 62.6127 409.373 61.3934C409.157 60.1741 409.048 58.1289 409.048 55.2579V10.7014C409.048 7.77849 409.157 5.74631 409.373 4.60483C409.589 3.4547 410.267 2.3997 411.409 1.43982C412.559 0.47994 413.903 0 415.442 0C416.946 0 418.278 0.44535 419.436 1.33605C420.603 2.2181 421.299 3.26878 421.524 4.48809C421.757 5.70739 421.874 7.77849 421.874 10.7014ZM433.532 33.2456C433.532 23.1193 436.242 15.0468 441.663 9.02806C447.092 3.00935 454.692 0 464.461 0C474.758 0 482.574 3.03962 487.908 9.11886C493.242 15.1981 495.909 23.1236 495.909 32.8953C495.909 42.693 493.247 50.6531 487.921 56.7756C482.604 62.8981 474.901 65.9593 464.811 65.9593C454.687 65.9593 446.941 62.9154 441.572 56.8275C436.212 50.7309 433.532 42.8703 433.532 33.2456ZM482.811 32.9861C482.811 26.0248 481.225 20.4991 478.052 16.4088C474.879 12.3185 470.435 10.2733 464.72 10.2733C459.447 10.2733 455.111 12.1671 451.713 15.9548C448.324 19.7337 446.63 25.4109 446.63 32.9861C446.63 40.4922 448.346 46.1521 451.778 49.9656C455.219 53.7792 459.503 55.686 464.63 55.686C469.653 55.686 473.937 53.8008 477.481 50.0305C481.035 46.2602 482.811 40.5787 482.811 32.9861ZM548.538 45.3349V7.48447C548.538 2.49482 550.526 0 554.503 0C555.921 0 557.17 0.423731 558.251 1.27119C559.34 2.11001 560.002 3.10448 560.235 4.2546C560.468 5.39608 560.585 7.37205 560.585 10.1825V52.8582C560.585 55.9973 560.468 58.3278 560.235 59.8498C560.002 61.3718 559.319 62.7727 558.186 64.0525C557.062 65.3237 555.311 65.9593 552.934 65.9593C550.989 65.9593 549.463 65.4794 548.356 64.5195C547.258 63.5596 545.594 61.3847 543.363 57.9949L519.138 21.1952V55.8676C519.138 58.6521 519.035 60.5978 518.827 61.7047C518.628 62.8029 518.014 63.7888 516.986 64.6622C515.957 65.5269 514.686 65.9593 513.173 65.9593C511.781 65.9593 510.553 65.5615 509.49 64.7659C508.435 63.9617 507.778 62.9586 507.519 61.7566C507.259 60.5546 507.13 58.5916 507.13 55.8676V12.7508C507.13 8.77295 507.294 6.16139 507.622 4.91614C507.96 3.67089 508.794 2.54238 510.125 1.53062C511.465 0.510206 513.017 0 514.781 0C516.579 0 517.962 0.428054 518.931 1.28416C519.908 2.14027 521.529 4.29352 523.794 7.7439L548.538 45.3349Z" fill="#2E2D7F"/>
<path d="M3.82955 102H1.61364L8.02273 84.5455H10.2045L16.6136 102H14.3977L9.18182 87.3068H9.04545L3.82955 102ZM4.64773 95.1818H13.5795V97.0568H4.64773V95.1818ZM40.4824 102V84.5455H42.596V92.3182H51.9028V84.5455H54.0165V102H51.9028V94.1932H42.596V102H40.4824ZM80.1753 93.2727C80.1753 95.1136 79.8429 96.7045 79.1781 98.0455C78.5134 99.3864 77.6014 100.42 76.4423 101.148C75.2832 101.875 73.9594 102.239 72.4707 102.239C70.9821 102.239 69.6582 101.875 68.4991 101.148C67.3401 100.42 66.4281 99.3864 65.7634 98.0455C65.0986 96.7045 64.7662 95.1136 64.7662 93.2727C64.7662 91.4318 65.0986 89.8409 65.7634 88.5C66.4281 87.1591 67.3401 86.125 68.4991 85.3977C69.6582 84.6705 70.9821 84.3068 72.4707 84.3068C73.9594 84.3068 75.2832 84.6705 76.4423 85.3977C77.6014 86.125 78.5134 87.1591 79.1781 88.5C79.8429 89.8409 80.1753 91.4318 80.1753 93.2727ZM78.1298 93.2727C78.1298 91.7614 77.877 90.4858 77.3713 89.446C76.8713 88.4062 76.1923 87.6193 75.3344 87.0852C74.4821 86.5511 73.5276 86.2841 72.4707 86.2841C71.4139 86.2841 70.4565 86.5511 69.5986 87.0852C68.7463 87.6193 68.0673 88.4062 67.5616 89.446C67.0616 90.4858 66.8116 91.7614 66.8116 93.2727C66.8116 94.7841 67.0616 96.0597 67.5616 97.0994C68.0673 98.1392 68.7463 98.9261 69.5986 99.4602C70.4565 99.9943 71.4139 100.261 72.4707 100.261C73.5276 100.261 74.4821 99.9943 75.3344 99.4602C76.1923 98.9261 76.8713 98.1392 77.3713 97.0994C77.877 96.0597 78.1298 94.7841 78.1298 93.2727ZM102.384 84.5455H104.497V96.1023C104.497 97.2955 104.216 98.3608 103.654 99.2983C103.097 100.23 102.31 100.966 101.293 101.506C100.276 102.04 99.0827 102.307 97.7134 102.307C96.344 102.307 95.1509 102.04 94.1338 101.506C93.1168 100.966 92.327 100.23 91.7645 99.2983C91.2077 98.3608 90.9293 97.2955 90.9293 96.1023V84.5455H93.0429V95.9318C93.0429 96.7841 93.2304 97.5426 93.6054 98.2074C93.9804 98.8665 94.5145 99.3864 95.2077 99.767C95.9065 100.142 96.7418 100.33 97.7134 100.33C98.6849 100.33 99.5202 100.142 100.219 99.767C100.918 99.3864 101.452 98.8665 101.821 98.2074C102.196 97.5426 102.384 96.7841 102.384 95.9318V84.5455ZM125.464 88.9091C125.362 88.0455 124.947 87.375 124.219 86.8977C123.492 86.4205 122.6 86.1818 121.543 86.1818C120.771 86.1818 120.094 86.3068 119.515 86.5568C118.941 86.8068 118.492 87.1506 118.168 87.5881C117.85 88.0256 117.691 88.5227 117.691 89.0795C117.691 89.5455 117.802 89.946 118.023 90.2812C118.251 90.6108 118.54 90.8864 118.893 91.108C119.245 91.3239 119.614 91.5028 120.001 91.6449C120.387 91.7812 120.742 91.892 121.066 91.9773L122.839 92.4545C123.293 92.5739 123.799 92.7386 124.356 92.9489C124.918 93.1591 125.455 93.446 125.967 93.8097C126.484 94.1676 126.91 94.6278 127.245 95.1903C127.58 95.7528 127.748 96.4432 127.748 97.2614C127.748 98.2045 127.501 99.0568 127.006 99.8182C126.518 100.58 125.802 101.185 124.859 101.634C123.921 102.082 122.782 102.307 121.441 102.307C120.191 102.307 119.109 102.105 118.194 101.702C117.285 101.298 116.569 100.736 116.046 100.014C115.529 99.2926 115.237 98.4545 115.168 97.5H117.35C117.407 98.1591 117.629 98.7045 118.015 99.1364C118.407 99.5625 118.901 99.8807 119.498 100.091C120.1 100.295 120.748 100.398 121.441 100.398C122.248 100.398 122.972 100.267 123.614 100.006C124.256 99.7386 124.765 99.3693 125.14 98.8977C125.515 98.4205 125.702 97.8636 125.702 97.2273C125.702 96.6477 125.54 96.1761 125.217 95.8125C124.893 95.4489 124.467 95.1534 123.938 94.9261C123.41 94.6989 122.839 94.5 122.225 94.3295L120.077 93.7159C118.714 93.3239 117.634 92.7642 116.839 92.0369C116.043 91.3097 115.646 90.358 115.646 89.1818C115.646 88.2045 115.91 87.3523 116.438 86.625C116.972 85.892 117.688 85.3239 118.586 84.9205C119.489 84.5114 120.498 84.3068 121.612 84.3068C122.737 84.3068 123.737 84.5085 124.612 84.9119C125.487 85.3097 126.18 85.8551 126.691 86.5483C127.208 87.2415 127.481 88.0284 127.509 88.9091H125.464ZM138.423 102V84.5455H148.957V86.4205H140.537V92.3182H148.412V94.1932H140.537V100.125H149.093V102H138.423ZM188.644 93.2727C188.644 95.1136 188.312 96.7045 187.647 98.0455C186.982 99.3864 186.07 100.42 184.911 101.148C183.752 101.875 182.428 102.239 180.939 102.239C179.451 102.239 178.127 101.875 176.968 101.148C175.809 100.42 174.897 99.3864 174.232 98.0455C173.567 96.7045 173.235 95.1136 173.235 93.2727C173.235 91.4318 173.567 89.8409 174.232 88.5C174.897 87.1591 175.809 86.125 176.968 85.3977C178.127 84.6705 179.451 84.3068 180.939 84.3068C182.428 84.3068 183.752 84.6705 184.911 85.3977C186.07 86.125 186.982 87.1591 187.647 88.5C188.312 89.8409 188.644 91.4318 188.644 93.2727ZM186.599 93.2727C186.599 91.7614 186.346 90.4858 185.84 89.446C185.34 88.4062 184.661 87.6193 183.803 87.0852C182.951 86.5511 181.996 86.2841 180.939 86.2841C179.883 86.2841 178.925 86.5511 178.067 87.0852C177.215 87.6193 176.536 88.4062 176.03 89.446C175.53 90.4858 175.28 91.7614 175.28 93.2727C175.28 94.7841 175.53 96.0597 176.03 97.0994C176.536 98.1392 177.215 98.9261 178.067 99.4602C178.925 99.9943 179.883 100.261 180.939 100.261C181.996 100.261 182.951 99.9943 183.803 99.4602C184.661 98.9261 185.34 98.1392 185.84 97.0994C186.346 96.0597 186.599 94.7841 186.599 93.2727ZM199.398 102V84.5455H209.864V86.4205H201.512V92.3182H209.08V94.1932H201.512V102H199.398ZM240.975 96.5455H243.293L245.236 99.1023L245.748 99.7841L248.645 103.636H246.327L244.418 101.08L243.941 100.432L240.975 96.5455ZM249.361 93.2727C249.361 95.1136 249.029 96.7045 248.364 98.0455C247.699 99.3864 246.787 100.42 245.628 101.148C244.469 101.875 243.145 102.239 241.657 102.239C240.168 102.239 238.844 101.875 237.685 101.148C236.526 100.42 235.614 99.3864 234.949 98.0455C234.285 96.7045 233.952 95.1136 233.952 93.2727C233.952 91.4318 234.285 89.8409 234.949 88.5C235.614 87.1591 236.526 86.125 237.685 85.3977C238.844 84.6705 240.168 84.3068 241.657 84.3068C243.145 84.3068 244.469 84.6705 245.628 85.3977C246.787 86.125 247.699 87.1591 248.364 88.5C249.029 89.8409 249.361 91.4318 249.361 93.2727ZM247.316 93.2727C247.316 91.7614 247.063 90.4858 246.557 89.446C246.057 88.4062 245.378 87.6193 244.52 87.0852C243.668 86.5511 242.713 86.2841 241.657 86.2841C240.6 86.2841 239.642 86.5511 238.785 87.0852C237.932 87.6193 237.253 88.4062 236.748 89.446C236.248 90.4858 235.998 91.7614 235.998 93.2727C235.998 94.7841 236.248 96.0597 236.748 97.0994C237.253 98.1392 237.932 98.9261 238.785 99.4602C239.642 99.9943 240.6 100.261 241.657 100.261C242.713 100.261 243.668 99.9943 244.52 99.4602C245.378 98.9261 246.057 98.1392 246.557 97.0994C247.063 96.0597 247.316 94.7841 247.316 93.2727ZM271.57 84.5455H273.683V96.1023C273.683 97.2955 273.402 98.3608 272.84 99.2983C272.283 100.23 271.496 100.966 270.479 101.506C269.462 102.04 268.269 102.307 266.899 102.307C265.53 102.307 264.337 102.04 263.32 101.506C262.303 100.966 261.513 100.23 260.95 99.2983C260.394 98.3608 260.115 97.2955 260.115 96.1023V84.5455H262.229V95.9318C262.229 96.7841 262.416 97.5426 262.791 98.2074C263.166 98.8665 263.7 99.3864 264.394 99.767C265.092 100.142 265.928 100.33 266.899 100.33C267.871 100.33 268.706 100.142 269.405 99.767C270.104 99.3864 270.638 98.8665 271.007 98.2074C271.382 97.5426 271.57 96.7841 271.57 95.9318V84.5455ZM285.82 102H283.604L290.013 84.5455H292.195L298.604 102H296.388L291.172 87.3068H291.036L285.82 102ZM286.638 95.1818H295.57V97.0568H286.638V95.1818ZM308.523 102V84.5455H310.637V100.125H318.75V102H308.523ZM331.337 84.5455V102H329.223V84.5455H331.337ZM341.82 86.4205V84.5455H354.911V86.4205H349.422V102H347.309V86.4205H341.82ZM363.873 84.5455H366.293L371.134 92.6932H371.339L376.18 84.5455H378.6L372.293 94.8068V102H370.18V94.8068L363.873 84.5455Z" fill="black"/>
<line x1="400" y1="93.5" x2="559" y2="93.5" stroke="#D09F44" stroke-width="3"/>
</svg>
